<svg width="195" height="37" viewBox="0 0 195 37" fill="none" xmlns="http://www.w3.org/2000/svg">
<path d="M41.6445 20.9863H44.4863C44.5514 21.5592 44.8542 22.0247 45.3945 22.3828C45.9414 22.7344 46.6087 22.9102 47.3965 22.9102C48.1777 22.9102 48.8125 22.7441 49.3008 22.4121C49.7956 22.0736 50.043 21.6439 50.043 21.123C50.043 20.6673 49.8607 20.2995 49.4961 20.0195C49.1315 19.7396 48.5228 19.5052 47.6699 19.3164L45.834 18.916C43.2493 18.3626 41.957 17.0508 41.957 14.9805C41.957 13.6914 42.4583 12.6497 43.4609 11.8555C44.4701 11.0612 45.7656 10.6641 47.3477 10.6641C48.9753 10.6641 50.2741 11.0514 51.2441 11.8262C52.2142 12.5944 52.7122 13.6198 52.7383 14.9023H49.9746C49.929 14.3099 49.6654 13.8444 49.1836 13.5059C48.7083 13.1608 48.0996 12.9883 47.3574 12.9883C46.6283 12.9883 46.0391 13.1478 45.5898 13.4668C45.1471 13.7858 44.9258 14.2057 44.9258 14.7266C44.9258 15.1562 45.1048 15.5046 45.4629 15.7715C45.8275 16.0384 46.4167 16.2663 47.2305 16.4551L48.9395 16.8164C50.3522 17.1159 51.3809 17.5846 52.0254 18.2227C52.6699 18.8542 52.9922 19.707 52.9922 20.7812C52.9922 22.1484 52.4779 23.2357 51.4492 24.043C50.4206 24.8438 49.0306 25.2441 47.2793 25.2441C45.5801 25.2441 44.2259 24.8665 43.2168 24.1113C42.2142 23.3496 41.6901 22.3079 41.6445 20.9863ZM55.3262 12.1191H58.1777V14.5312H60.1113V16.6797H58.1777V21.6895C58.1777 22.4772 58.5879 22.8711 59.4082 22.8711C59.6751 22.8711 59.9062 22.8548 60.1016 22.8223V24.9219C59.7695 25 59.3171 25.0391 58.7441 25.0391C57.5137 25.0391 56.6348 24.8177 56.1074 24.375C55.5866 23.9323 55.3262 23.1999 55.3262 22.1777V16.6797H53.8516V14.5312H55.3262V12.1191ZM65.6191 23.1055C66.2507 23.1055 66.7845 22.9232 67.2207 22.5586C67.6634 22.1875 67.8848 21.722 67.8848 21.1621V20.4004L65.6777 20.5371C65.1439 20.5762 64.7305 20.7096 64.4375 20.9375C64.151 21.1654 64.0078 21.4648 64.0078 21.8359C64.0078 22.2266 64.1543 22.5358 64.4473 22.7637C64.7402 22.9915 65.1309 23.1055 65.6191 23.1055ZM64.6816 25.166C63.6725 25.166 62.8359 24.8698 62.1719 24.2773C61.5078 23.6849 61.1758 22.9232 61.1758 21.9922C61.1758 21.0417 61.5273 20.2962 62.2305 19.7559C62.9336 19.2155 63.9395 18.9062 65.248 18.8281L67.8848 18.6719V17.9785C67.8848 17.4967 67.7253 17.1191 67.4062 16.8457C67.0938 16.5723 66.6673 16.4355 66.127 16.4355C65.6061 16.4355 65.1797 16.5527 64.8477 16.7871C64.5221 17.0215 64.3236 17.3372 64.252 17.7344H61.6445C61.6966 16.7057 62.1361 15.8789 62.9629 15.2539C63.7897 14.6224 64.8867 14.3066 66.2539 14.3066C67.5951 14.3066 68.6693 14.6257 69.4766 15.2637C70.2839 15.9017 70.6875 16.748 70.6875 17.8027V25H67.9336V23.3984H67.875C67.5885 23.9453 67.1523 24.3783 66.5664 24.6973C65.9805 25.0098 65.3522 25.166 64.6816 25.166ZM72.5332 25V14.5312H75.2871V16.416H75.3457C75.528 15.752 75.834 15.2441 76.2637 14.8926C76.6934 14.541 77.2174 14.3652 77.8359 14.3652C78.1354 14.3652 78.4056 14.401 78.6465 14.4727V16.9824C78.3796 16.8717 78.0345 16.8164 77.6113 16.8164C76.9082 16.8164 76.3613 17.0215 75.9707 17.4316C75.5801 17.8418 75.3848 18.4147 75.3848 19.1504V25H72.5332ZM80.5801 12.1191H83.4316V14.5312H85.3652V16.6797H83.4316V21.6895C83.4316 22.4772 83.8418 22.8711 84.6621 22.8711C84.929 22.8711 85.1602 22.8548 85.3555 22.8223V24.9219C85.0234 25 84.571 25.0391 83.998 25.0391C82.7676 25.0391 81.8887 24.8177 81.3613 24.375C80.8405 23.9323 80.5801 23.1999 80.5801 22.1777V16.6797H79.1055V14.5312H80.5801V12.1191ZM96.5957 14.5312V25H93.8418V23.1152H93.7832C93.2363 24.502 92.1914 25.1953 90.6484 25.1953C89.5026 25.1953 88.5879 24.847 87.9043 24.1504C87.2207 23.4473 86.8789 22.4902 86.8789 21.2793V14.5312H89.7305V20.6836C89.7305 21.3802 89.8965 21.9108 90.2285 22.2754C90.5671 22.64 91.0521 22.8223 91.6836 22.8223C92.3151 22.8223 92.8164 22.6139 93.1875 22.1973C93.5586 21.7806 93.7441 21.224 93.7441 20.5273V14.5312H96.5957ZM104.564 14.3652C105.893 14.3652 106.938 14.8438 107.699 15.8008C108.467 16.7578 108.852 18.0794 108.852 19.7656C108.852 21.4453 108.474 22.7669 107.719 23.7305C106.964 24.6875 105.928 25.166 104.613 25.166C103.865 25.166 103.204 24.9967 102.631 24.6582C102.064 24.3132 101.641 23.8411 101.361 23.2422H101.303V28.418H98.4512V14.5312H101.264V16.3574H101.322C101.609 15.7324 102.032 15.2441 102.592 14.8926C103.158 14.541 103.816 14.3652 104.564 14.3652ZM103.607 22.8711C104.317 22.8711 104.88 22.5911 105.297 22.0312C105.72 21.4714 105.932 20.7161 105.932 19.7656C105.932 18.8151 105.72 18.0599 105.297 17.5C104.88 16.9336 104.317 16.6504 103.607 16.6504C102.911 16.6504 102.351 16.9368 101.928 17.5098C101.505 18.0762 101.293 18.8281 101.293 19.7656C101.293 20.7096 101.501 21.4648 101.918 22.0312C102.341 22.5911 102.904 22.8711 103.607 22.8711ZM123.646 22.5586V25H114.535V10.9082H117.484V22.5586H123.646ZM129.193 23.1055C129.825 23.1055 130.359 22.9232 130.795 22.5586C131.238 22.1875 131.459 21.722 131.459 21.1621V20.4004L129.252 20.5371C128.718 20.5762 128.305 20.7096 128.012 20.9375C127.725 21.1654 127.582 21.4648 127.582 21.8359C127.582 22.2266 127.729 22.5358 128.021 22.7637C128.314 22.9915 128.705 23.1055 129.193 23.1055ZM128.256 25.166C127.247 25.166 126.41 24.8698 125.746 24.2773C125.082 23.6849 124.75 22.9232 124.75 21.9922C124.75 21.0417 125.102 20.2962 125.805 19.7559C126.508 19.2155 127.514 18.9062 128.822 18.8281L131.459 18.6719V17.9785C131.459 17.4967 131.299 17.1191 130.98 16.8457C130.668 16.5723 130.242 16.4355 129.701 16.4355C129.18 16.4355 128.754 16.5527 128.422 16.7871C128.096 17.0215 127.898 17.3372 127.826 17.7344H125.219C125.271 16.7057 125.71 15.8789 126.537 15.2539C127.364 14.6224 128.461 14.3066 129.828 14.3066C131.169 14.3066 132.243 14.6257 133.051 15.2637C133.858 15.9017 134.262 16.748 134.262 17.8027V25H131.508V23.3984H131.449C131.163 23.9453 130.727 24.3783 130.141 24.6973C129.555 25.0098 128.926 25.166 128.256 25.166ZM136.107 25V14.5312H138.861V16.3965H138.92C139.206 15.7324 139.623 15.2246 140.17 14.873C140.723 14.515 141.397 14.3359 142.191 14.3359C143.35 14.3359 144.245 14.681 144.877 15.3711C145.508 16.0612 145.824 17.0215 145.824 18.252V25H142.973V18.8477C142.973 18.1576 142.81 17.627 142.484 17.2559C142.159 16.8848 141.68 16.6992 141.049 16.6992C140.417 16.6992 139.91 16.9108 139.525 17.334C139.148 17.7572 138.959 18.3105 138.959 18.9941V25H136.107ZM151.518 25.166C150.209 25.166 149.171 24.681 148.402 23.7109C147.634 22.7409 147.25 21.4193 147.25 19.7461C147.25 18.0859 147.634 16.7741 148.402 15.8105C149.177 14.847 150.222 14.3652 151.537 14.3652C152.279 14.3652 152.93 14.5443 153.49 14.9023C154.057 15.2604 154.47 15.7357 154.73 16.3281H154.789V10.9082H157.641V25H154.828V23.2031H154.779C154.519 23.7956 154.099 24.2708 153.52 24.6289C152.94 24.987 152.273 25.166 151.518 25.166ZM152.484 16.6504C151.768 16.6504 151.202 16.9303 150.785 17.4902C150.375 18.0501 150.17 18.8086 150.17 19.7656C150.17 20.7292 150.375 21.4876 150.785 22.041C151.202 22.5944 151.768 22.8711 152.484 22.8711C153.194 22.8711 153.757 22.5944 154.174 22.041C154.597 21.4811 154.809 20.7227 154.809 19.7656C154.809 18.8151 154.597 18.0599 154.174 17.5C153.757 16.9336 153.194 16.6504 152.484 16.6504ZM159.594 25V14.5312H162.445V25H159.594ZM162.104 12.9492C161.811 13.2357 161.449 13.3789 161.02 13.3789C160.59 13.3789 160.229 13.2357 159.936 12.9492C159.643 12.6628 159.496 12.3145 159.496 11.9043C159.496 11.4876 159.643 11.1393 159.936 10.8594C160.229 10.5729 160.59 10.4297 161.02 10.4297C161.449 10.4297 161.811 10.5729 162.104 10.8594C162.396 11.1393 162.543 11.4876 162.543 11.9043C162.543 12.3145 162.396 12.6628 162.104 12.9492ZM164.35 25V14.5312H167.104V16.3965H167.162C167.449 15.7324 167.865 15.2246 168.412 14.873C168.965 14.515 169.639 14.3359 170.434 14.3359C171.592 14.3359 172.488 14.681 173.119 15.3711C173.751 16.0612 174.066 17.0215 174.066 18.252V25H171.215V18.8477C171.215 18.1576 171.052 17.627 170.727 17.2559C170.401 16.8848 169.923 16.6992 169.291 16.6992C168.66 16.6992 168.152 16.9108 167.768 17.334C167.39 17.7572 167.201 18.3105 167.201 18.9941V25H164.35ZM180.707 22.7734C181.423 22.7734 181.99 22.5065 182.406 21.9727C182.829 21.4323 183.041 20.6901 183.041 19.7461C183.041 18.8021 182.829 18.0501 182.406 17.4902C181.983 16.9303 181.417 16.6504 180.707 16.6504C180.004 16.6504 179.444 16.9303 179.027 17.4902C178.617 18.0436 178.412 18.7956 178.412 19.7461C178.412 20.6966 178.617 21.4388 179.027 21.9727C179.438 22.5065 179.997 22.7734 180.707 22.7734ZM180.658 28.9453C179.298 28.9453 178.178 28.6458 177.299 28.0469C176.426 27.4544 175.932 26.6862 175.814 25.7422H178.607C178.718 26.1068 178.965 26.3997 179.35 26.6211C179.74 26.849 180.202 26.9629 180.736 26.9629C181.459 26.9629 182.022 26.7773 182.426 26.4062C182.829 26.0417 183.031 25.5501 183.031 24.9316V23.0957H182.973C182.725 23.6621 182.312 24.1178 181.732 24.4629C181.153 24.8014 180.489 24.9707 179.74 24.9707C178.451 24.9707 177.419 24.502 176.645 23.5645C175.876 22.627 175.492 21.3477 175.492 19.7266C175.492 18.0664 175.876 16.7578 176.645 15.8008C177.413 14.8438 178.461 14.3652 179.789 14.3652C180.531 14.3652 181.186 14.5443 181.752 14.9023C182.318 15.2604 182.742 15.7454 183.021 16.3574H183.07V14.5312H185.883V24.8535C185.883 26.097 185.404 27.0898 184.447 27.832C183.497 28.5742 182.234 28.9453 180.658 28.9453Z" fill="#0F2137"/>
<g clip-path="url(#clip0)">
<path d="M20.2107 0.539326C16.7919 -0.368329 13.166 -0.132153 9.89686 1.21112C6.62773 2.55438 3.89871 4.92944 2.13429 7.96684C0.369871 11.0042 -0.331025 14.5337 0.140625 18.0062C0.612276 21.4787 2.23003 24.6996 4.74225 27.1678L22.6286 9.4656C23.2974 8.80315 23.7782 7.97812 24.0229 7.07343C24.2675 6.16874 24.2673 5.21625 24.0223 4.31167C23.7773 3.40708 23.296 2.58226 22.627 1.92009C21.9579 1.25791 21.1246 0.781711 20.2107 0.539326Z" fill="url(#paint0_linear)"/>
<path d="M6.78875 36.4601C10.2096 37.3707 13.8386 37.1359 17.1107 35.7925C20.3827 34.449 23.1142 32.0723 24.8796 29.0323C26.6451 25.9923 27.3455 22.4597 26.8717 18.9847C26.398 15.5097 24.7767 12.2873 22.2603 9.81934L4.37394 27.5338C3.70514 28.196 3.22416 29.0208 2.97933 29.9253C2.7345 30.8298 2.73443 31.7822 2.97913 32.6867C3.22383 33.5913 3.70469 34.4161 4.3734 35.0785C5.0421 35.7408 5.87512 36.2173 6.78875 36.4601Z" fill="url(#paint1_linear)"/>
<path style="mix-blend-mode:multiply" d="M22.2603 9.81934L4.37394 27.5338C3.70514 28.196 3.22416 29.0208 2.97933 29.9253C2.7345 30.8298 2.73443 31.7822 2.97913 32.6867C3.22383 33.5913 3.70469 34.4161 4.3734 35.0785C5.0421 35.7408 5.87512 36.2173 6.78875 36.4601C8.70142 36.965 10.6917 37.1169 12.6599 36.9081C4.81723 29.4393 22.2603 9.81934 22.2603 9.81934Z" fill="url(#paint2_linear)"/>
<g style="mix-blend-mode:multiply">
<path style="mix-blend-mode:multiply" d="M6.46017 36.3617C3.92136 28.58 19.1697 12.9092 21.8604 10.2273L4.37395 27.5336C3.72563 28.1755 3.25344 28.9705 3.00202 29.8433C2.7506 30.7162 2.72826 31.6381 2.93711 32.5219C3.14597 33.4057 3.57912 34.2222 4.19559 34.8941C4.81207 35.566 5.5915 36.0711 6.46017 36.3617Z" fill="url(#paint3_linear)"/>
<path style="mix-blend-mode:multiply" d="M22.2014 9.88984C22.22 9.86941 22.2396 9.84995 22.2603 9.83154L22.2014 9.88984Z" fill="url(#paint4_linear)"/>
</g>
<path style="mix-blend-mode:screen" d="M23.9404 7.3645L4.72113 27.1563L22.6292 9.46643C23.2273 8.87775 23.6766 8.15757 23.9404 7.3645Z" fill="url(#paint5_radial)"/>
</g>
<defs>
<linearGradient id="paint0_linear" x1="16.4102" y1="-16.6934" x2="10.5876" y2="20.6654" gradientUnits="userSpaceOnUse">
<stop stop-color="#0096D9"/>
<stop offset="1" stop-color="#00C198"/>
</linearGradient>
<linearGradient id="paint1_linear" x1="9.13537" y1="13.6181" x2="18.5045" y2="32.4248" gradientUnits="userSpaceOnUse">
<stop stop-color="#002DD9"/>
<stop offset="1" stop-color="#00B2AB"/>
</linearGradient>
<linearGradient id="paint2_linear" x1="23.8071" y1="-3.42432" x2="6.08252" y2="38.1714" gradientUnits="userSpaceOnUse">
<stop stop-color="#3482C0"/>
<stop offset="0.45" stop-color="#96BEDE"/>
<stop offset="0.83" stop-color="#E1EDF6"/>
<stop offset="1" stop-color="white"/>
</linearGradient>
<linearGradient id="paint3_linear" x1="1361.37" y1="132.275" x2="-132.261" y2="2238.51" gradientUnits="userSpaceOnUse">
<stop stop-color="#3482C0"/>
<stop offset="0.45" stop-color="#96BEDE"/>
<stop offset="0.83" stop-color="#E1EDF6"/>
<stop offset="1" stop-color="white"/>
</linearGradient>
<linearGradient id="paint4_linear" x1="25.6732" y1="3.26808" x2="10.5951" y2="32.7125" gradientUnits="userSpaceOnUse">
<stop stop-color="#569FA1"/>
<stop offset="0.36" stop-color="#97C4C5"/>
<stop offset="0.8" stop-color="#E2EEEF"/>
<stop offset="1" stop-color="white"/>
</linearGradient>
<radialGradient id="paint5_radial" cx="0" cy="0" r="1" gradientUnits="userSpaceOnUse" gradientTransform="translate(21.5938 32.382) scale(27.8184 27.5367)">
<stop stop-color="#FFFF00"/>
<stop offset="1"/>
</radialGradient>
<clipPath id="clip0">
<rect width="27" height="37" fill="white"/>
</clipPath>
</defs>
</svg>
