<svg width="23" height="26" viewBox="0 0 23 26" fill="none" xmlns="http://www.w3.org/2000/svg">
<path fill-rule="evenodd" clip-rule="evenodd" d="M12.4017 16.3189H10.8709C10.3143 16.3189 9.86341 15.8807 9.86341 15.3402C9.86341 14.7998 10.3143 14.3622 10.8709 14.3622H13.5651C13.9325 14.3622 14.233 14.0699 14.233 13.7134C14.233 13.3562 13.9325 13.0645 13.5651 13.0645H12.3016V12.1621C12.3016 11.8049 12.0009 11.5133 11.6336 11.5133C11.2662 11.5133 10.9656 11.8049 10.9656 12.1621V13.0645H10.8709C9.57958 13.0645 8.52753 14.086 8.52753 15.3402C8.52753 16.5945 9.57958 17.616 10.8709 17.616H12.4017C12.9583 17.616 13.4092 18.0541 13.4092 18.5946C13.4092 19.1351 12.9583 19.5726 12.4017 19.5726H9.65753C9.29017 19.5726 8.98952 19.8649 8.98952 20.2215C8.98952 20.578 9.29017 20.8703 9.65753 20.8703H10.9712V21.7942C10.9712 22.1513 11.2717 22.443 11.6392 22.443C12.0065 22.443 12.3071 22.1513 12.3071 21.7942V20.8703H12.4184C12.424 20.8703 12.4295 20.8703 12.4351 20.8703C13.7154 20.8537 14.7451 19.8375 14.7451 18.5946C14.7451 17.3404 13.6931 16.3189 12.4017 16.3189ZM21.6752 14.8486C20.9739 13.2806 20.0053 11.7621 18.7807 10.3406C17.3001 8.61069 15.825 7.45409 15.0735 6.91893L17.9124 1.80495C18.0515 1.55138 18.007 1.23767 17.7899 1.03767C17.0551 0.339992 16.2759 -0.000488281 15.4075 -0.000488281C14.6115 -0.000488281 13.8823 0.291776 13.2477 0.551308C12.7468 0.75134 12.2736 0.945996 11.8896 0.945996C11.7727 0.945996 11.6725 0.929308 11.5723 0.891816C10.2476 0.421556 9.22893 0.129264 8.24373 0.129264C6.99676 0.129264 5.93361 0.616212 4.89276 1.65375C4.67568 1.86986 4.64225 2.21034 4.81484 2.46452L7.87626 6.95645C7.11921 7.50231 5.67201 8.64821 4.21916 10.3406C3.00014 11.7621 2.02603 13.2806 1.32474 14.8486C0.445265 16.8213 -4.57764e-05 18.8809 -4.57764e-05 20.9673C-4.57764e-05 23.7401 2.32665 25.9998 5.1822 25.9998H17.8177C20.6733 25.9998 23 23.7401 23 20.9673C23 18.8809 22.5547 16.8213 21.6752 14.8486ZM6.23974 2.19426C6.88552 1.65375 7.50328 1.41626 8.24373 1.41626C9.03405 1.41626 9.92475 1.6752 11.1103 2.10259C11.3553 2.18892 11.6169 2.23237 11.8841 2.23237C12.5352 2.23237 13.1587 1.98354 13.7543 1.74008C14.3276 1.50793 14.8732 1.28648 15.402 1.28648C15.658 1.28648 16.0198 1.32934 16.4762 1.64306L13.8044 6.46474H9.15101L6.23974 2.19426ZM17.8177 24.7027H5.1822C3.06138 24.7027 1.33583 23.027 1.33583 20.9673C1.33583 17.5023 2.64401 14.2158 5.2156 11.1995C6.84089 9.2917 8.4941 8.1077 8.99514 7.76184H13.9937C14.5002 8.10235 16.1478 9.2917 17.7732 11.1995C20.3504 14.2158 21.653 17.4969 21.653 20.9673C21.6641 23.027 19.9385 24.7027 17.8177 24.7027Z" fill="#02073E"/>
</svg>
