<svg width="26" height="26" viewBox="0 0 26 26" fill="none" xmlns="http://www.w3.org/2000/svg">
<path fill-rule="evenodd" clip-rule="evenodd" d="M25.9999 12.1116H24.7398V6.37319C24.7398 4.99752 23.6093 3.87842 22.2196 3.87842H20.513L18.7665 0.769914C18.5003 0.294866 17.9938 -0.000366211 17.4443 -0.000366211C17.1882 -0.000366211 16.9343 0.0650978 16.71 0.188326L10.0072 3.87842H2.52008C1.13044 3.87842 0 4.99752 0 6.37319V23.5045C0 24.8808 1.13044 25.9999 2.52008 25.9999H22.2196C23.6093 25.9999 24.7398 24.8808 24.7398 23.5045V18.4733H25.9999V12.1116V12.1116ZM22.2196 4.87609C22.9959 4.87609 23.63 5.46005 23.7151 6.20712H21.8209L21.0738 4.87609H22.2196ZM17.2003 1.06039C17.4367 0.92943 17.7548 1.0211 17.8854 1.25445L20.6677 6.20651H7.8519L17.2003 1.06039ZM23.7317 23.5045C23.7317 24.3302 23.0532 25.0016 22.2196 25.0016H2.52008C1.6865 25.0016 1.008 24.3302 1.008 23.5045V6.37319C1.008 5.54814 1.6865 4.87609 2.52008 4.87609H8.19465L5.77732 6.20712H2.83514C2.55648 6.20712 2.33117 6.43034 2.33117 6.70594C2.33117 6.98157 2.55648 7.20538 2.83514 7.20538H3.96424H22.3814H23.7317V12.1122H20.0457C18.334 12.1122 16.9408 13.4915 16.9408 15.1856V15.4005C16.9408 17.0952 18.334 18.4739 20.0457 18.4739H23.7317V23.5045V23.5045ZM24.9918 17.4756H24.7398H20.0457C18.8895 17.4756 17.9488 16.5446 17.9488 15.3999V15.185C17.9488 14.0403 18.8894 13.1093 20.0457 13.1093H24.7398H24.9918V17.4756ZM21.5896 15.3332C21.5896 15.9422 21.0916 16.4351 20.4767 16.4351C19.8617 16.4351 19.3637 15.9422 19.3637 15.3332C19.3637 14.7249 19.8618 14.232 20.4767 14.232C21.0916 14.232 21.5896 14.7254 21.5896 15.3332Z" fill="#02073E"/>
</svg>
